<svg xmlns="http://www.w3.org/2000/svg" width="256" height="256" viewBox="0 0 100 100"><rect width="100" height="100" rx="20" fill="#8578e4"></rect><path fill="#fff" d="M39.25 79.07L39.25 79.07Q38.80 79.25 37.90 79.47Q37.00 79.70 35.91 79.70L35.91 79.70Q32.05 79.70 32.05 76.46L32.05 76.46L32.05 20.93Q32.50 20.75 33.44 20.53Q34.39 20.30 35.47 20.30L35.47 20.30Q39.25 20.30 39.25 23.54L39.25 23.54L39.25 39.74Q41.41 38.48 44.33 37.49Q47.26 36.50 50.95 36.50L50.95 36.50Q54.73 36.50 57.83 37.49Q60.94 38.48 63.19 40.51Q65.44 42.53 66.69 45.63Q67.95 48.74 67.95 52.88L67.95 52.88L67.95 79.07Q67.50 79.25 66.56 79.47Q65.62 79.70 64.63 79.70L64.63 79.70Q60.76 79.70 60.76 76.46L60.76 76.46L60.76 53.06Q60.76 47.66 57.79 45.05Q54.81 42.44 49.95 42.44L49.95 42.44Q46.80 42.44 44.06 43.57Q41.31 44.69 39.25 46.31L39.25 46.31L39.25 79.07Z"></path></svg>